/* XPM */
static char *logo_24x24x256[] = {
"16 16 10 1 0 0",
"  c #FFFFFF",
"! c #C0C0C0",
"# c #000080",
"$ c #008080",
"% c #808080",
"& c #800080",
"' c #0000FF",
"( c #800000",
") c #000000",
"* c None",
"                ",
"         !#$!   ",
"      !%!$&%'!  ",
"    !%%!!%#%'%  ",
"   %% %!%%!%##! ",
"  !% % !!!#!($' ",
"  %!% %!!%!%%#%!",
"  % %!! !!%%%## ",
"  %%%!!!! %%%#$ ",
" %)%!!!!%!!%%#% ",
" $%#!%!!!!%!%%! ",
" !%%$!!%%!!%!   ",
"   !%%%%%%%     ",
"     ! !!       ",
"     !          ",
"     !          "
};
