<?xml version="1.0" encoding="UTF-8" standalone="no"?>
<!-- Created with Inkscape (http://www.inkscape.org/) -->

<svg
   xmlns:dc="http://purl.org/dc/elements/1.1/"
   xmlns:cc="http://creativecommons.org/ns#"
   xmlns:rdf="http://www.w3.org/1999/02/22-rdf-syntax-ns#"
   xmlns:svg="http://www.w3.org/2000/svg"
   xmlns="http://www.w3.org/2000/svg"
   xmlns:xlink="http://www.w3.org/1999/xlink"
   version="1.0"
   width="1111.3383"
   height="1168.5715"
   id="svg2"
   style="enable-background:new">
  <defs
     id="defs4">
    <linearGradient
       id="linearGradient4843-7">
      <stop
         id="stop4845-3"
         style="stop-color:#1364a6;stop-opacity:1"
         offset="0" />
      <stop
         id="stop4851-9"
         style="stop-color:#0c3054;stop-opacity:1"
         offset="0.23074746" />
      <stop
         id="stop4857-1"
         style="stop-color:#0d3a65;stop-opacity:1"
         offset="0.33926028" />
      <stop
         id="stop4853-3"
         style="stop-color:#00ffff;stop-opacity:1"
         offset="0.40011445" />
      <stop
         id="stop4855-4"
         style="stop-color:#0c3860;stop-opacity:1"
         offset="0.47628561" />
      <stop
         id="stop4847-9"
         style="stop-color:#07101f;stop-opacity:1"
         offset="1" />
    </linearGradient>
    <filter
       color-interpolation-filters="sRGB"
       id="filter4835-4">
      <feGaussianBlur
         stdDeviation="0.652414"
         id="feGaussianBlur4837-1" />
    </filter>
    <filter
       color-interpolation-filters="sRGB"
       id="filter5240-2">
      <feGaussianBlur
         stdDeviation="1.323987"
         id="feGaussianBlur5242-7" />
    </filter>
    <filter
       color-interpolation-filters="sRGB"
       id="filter5518-5">
      <feGaussianBlur
         stdDeviation="1.867083"
         id="feGaussianBlur5520-7" />
    </filter>
    <filter
       color-interpolation-filters="sRGB"
       id="filter4831-2">
      <feGaussianBlur
         stdDeviation="0.55504671"
         id="feGaussianBlur4833-7" />
    </filter>
    <linearGradient
       id="linearGradient5148-1">
      <stop
         id="stop5150-1"
         style="stop-color:#666666;stop-opacity:1"
         offset="0" />
      <stop
         id="stop5152-6"
         style="stop-color:#ffffff;stop-opacity:1"
         offset="1" />
    </linearGradient>
    <linearGradient
       id="linearGradient4581-5">
      <stop
         id="stop4583-9"
         style="stop-color:#4d4d4d;stop-opacity:1"
         offset="0" />
      <stop
         id="stop4585-7"
         style="stop-color:#cccccc;stop-opacity:0.46743295"
         offset="1" />
    </linearGradient>
    <linearGradient
       id="linearGradient5066-5">
      <stop
         id="stop5068-8"
         style="stop-color:#000000;stop-opacity:1"
         offset="0" />
      <stop
         id="stop5070-8"
         style="stop-color:#0000ff;stop-opacity:1"
         offset="1" />
    </linearGradient>
    <filter
       color-interpolation-filters="sRGB"
       id="filter5232-2">
      <feGaussianBlur
         stdDeviation="2.1926803"
         id="feGaussianBlur5234-6" />
    </filter>
    <linearGradient
       id="linearGradient5074-7">
      <stop
         id="stop5076-5"
         style="stop-color:#000000;stop-opacity:1"
         offset="0" />
      <stop
         id="stop5078-3"
         style="stop-color:#0000ff;stop-opacity:1"
         offset="1" />
    </linearGradient>
    <filter
       color-interpolation-filters="sRGB"
       id="filter5106-7">
      <feGaussianBlur
         stdDeviation="0.97232145"
         id="feGaussianBlur5108-7" />
    </filter>
    <linearGradient
       id="linearGradient4766-7">
      <stop
         id="stop4768-7"
         style="stop-color:#b3b3b3;stop-opacity:1"
         offset="0" />
      <stop
         id="stop4770-2"
         style="stop-color:#b3b3b3;stop-opacity:0"
         offset="1" />
    </linearGradient>
    <filter
       color-interpolation-filters="sRGB"
       id="filter4738-4">
      <feGaussianBlur
         stdDeviation="4.7767856"
         id="feGaussianBlur4740-2" />
    </filter>
    <filter
       color-interpolation-filters="sRGB"
       id="filter4746-1">
      <feGaussianBlur
         stdDeviation="1.8714908"
         id="feGaussianBlur4748-1" />
    </filter>
    <filter
       x="-0.02887555"
       y="-0.14214052"
       width="1.0577511"
       height="1.284281"
       color-interpolation-filters="sRGB"
       id="filter4800-0">
      <feGaussianBlur
         stdDeviation="3.7899159"
         id="feGaussianBlur4802-5" />
    </filter>
    <linearGradient
       id="linearGradient4636-3">
      <stop
         id="stop4638-7"
         style="stop-color:#0b1728;stop-opacity:1"
         offset="0" />
      <stop
         id="stop4640-7"
         style="stop-color:#003380;stop-opacity:1"
         offset="1" />
    </linearGradient>
    <filter
       color-interpolation-filters="sRGB"
       id="filter4652-0">
      <feGaussianBlur
         stdDeviation="1.7275343"
         id="feGaussianBlur4654-4" />
    </filter>
    <linearGradient
       id="linearGradient4688-9">
      <stop
         id="stop4690-1"
         style="stop-color:#000000;stop-opacity:1"
         offset="0" />
      <stop
         id="stop4692-7"
         style="stop-color:#0000ff;stop-opacity:1"
         offset="1" />
    </linearGradient>
    <filter
       color-interpolation-filters="sRGB"
       id="filter4684-8">
      <feGaussianBlur
         stdDeviation="1.792905"
         id="feGaussianBlur4686-9" />
    </filter>
    <filter
       x="-0.30437157"
       y="-0.23308396"
       width="1.6087431"
       height="1.4661679"
       color-interpolation-filters="sRGB"
       id="filter5506-9">
      <feGaussianBlur
         stdDeviation="19.709232"
         id="feGaussianBlur5508-6" />
    </filter>
    <filter
       x="-0.26795691"
       y="-0.21732563"
       width="1.5359138"
       height="1.4346513"
       color-interpolation-filters="sRGB"
       id="filter4437-5">
      <feGaussianBlur
         stdDeviation="7.2041083"
         id="feGaussianBlur4439-8" />
    </filter>
    <linearGradient
       id="linearGradient5302-1">
      <stop
         id="stop5304-6"
         style="stop-color:#aaaaff;stop-opacity:1"
         offset="0" />
      <stop
         id="stop5306-8"
         style="stop-color:#000000;stop-opacity:1"
         offset="1" />
    </linearGradient>
    <filter
       color-interpolation-filters="sRGB"
       id="filter5412-3">
      <feGaussianBlur
         stdDeviation="5.4063342"
         id="feGaussianBlur5414-5" />
    </filter>
    <linearGradient
       id="linearGradient4347-5">
      <stop
         id="stop4349-9"
         style="stop-color:#1266af;stop-opacity:1"
         offset="0" />
      <stop
         id="stop4351-2"
         style="stop-color:#00112b;stop-opacity:1"
         offset="1" />
    </linearGradient>
    <linearGradient
       id="linearGradient4696-3">
      <stop
         id="stop4698-4"
         style="stop-color:#87aade;stop-opacity:1"
         offset="0" />
      <stop
         id="stop4700-4"
         style="stop-color:#0b1728;stop-opacity:1"
         offset="1" />
    </linearGradient>
    <filter
       color-interpolation-filters="sRGB"
       id="filter4449-1">
      <feGaussianBlur
         stdDeviation="1.0806162"
         id="feGaussianBlur4451-7" />
    </filter>
    <linearGradient
       id="linearGradient4337-8">
      <stop
         id="stop4339-8"
         style="stop-color:#000000;stop-opacity:1"
         offset="0" />
      <stop
         id="stop4341-3"
         style="stop-color:#000080;stop-opacity:0"
         offset="1" />
    </linearGradient>
    <filter
       color-interpolation-filters="sRGB"
       id="filter4822-5">
      <feGaussianBlur
         stdDeviation="1.0260588"
         id="feGaussianBlur4824-0" />
    </filter>
    <filter
       color-interpolation-filters="sRGB"
       id="filter4970-7">
      <feGaussianBlur
         stdDeviation="1.2262642"
         id="feGaussianBlur4972-2" />
    </filter>
    <filter
       color-interpolation-filters="sRGB"
       id="filter5026-6">
      <feGaussianBlur
         stdDeviation="0.73221152"
         id="feGaussianBlur5028-3" />
    </filter>
    <linearGradient
       id="linearGradient5038-9">
      <stop
         id="stop5040-1"
         style="stop-color:#1a1a1a;stop-opacity:1"
         offset="0" />
      <stop
         id="stop5042-2"
         style="stop-color:#000000;stop-opacity:0"
         offset="1" />
    </linearGradient>
    <filter
       x="-0.088307858"
       y="-0.18717317"
       width="1.1766157"
       height="1.3743464"
       color-interpolation-filters="sRGB"
       id="filter5018-5">
      <feGaussianBlur
         stdDeviation="2.9508715"
         id="feGaussianBlur5020-2" />
    </filter>
    <linearGradient
       id="linearGradient5052-2">
      <stop
         id="stop5054-5"
         style="stop-color:#000000;stop-opacity:1"
         offset="0" />
      <stop
         id="stop5056-9"
         style="stop-color:#0000ff;stop-opacity:1"
         offset="1" />
    </linearGradient>
    <filter
       color-interpolation-filters="sRGB"
       id="filter5130-6">
      <feGaussianBlur
         stdDeviation="1.1043136"
         id="feGaussianBlur5132-6" />
    </filter>
    <filter
       color-interpolation-filters="sRGB"
       id="filter5206-8">
      <feGaussianBlur
         stdDeviation="0.48909803"
         id="feGaussianBlur5208-2" />
    </filter>
    <filter
       x="-0.18380085"
       y="-0.13550428"
       width="1.3676018"
       height="1.2710085"
       color-interpolation-filters="sRGB"
       id="filter5394-7">
      <feGaussianBlur
         stdDeviation="4.8394384"
         id="feGaussianBlur5396-7" />
    </filter>
    <filter
       x="-0.10820536"
       y="-0.086269028"
       width="1.2164108"
       height="1.172538"
       color-interpolation-filters="sRGB"
       id="filter5593-0">
      <feGaussianBlur
         stdDeviation="0.50652283"
         id="feGaussianBlur5595-0" />
    </filter>
    <radialGradient
       cx="135.46928"
       cy="276.23035"
       r="24.107143"
       fx="135.46928"
       fy="276.23035"
       id="radialGradient234943"
       xlink:href="#linearGradient4337-8"
       gradientUnits="userSpaceOnUse"
       gradientTransform="matrix(-2.1916082,-1.269721,0.64101886,-1.1883134,917.58489,947.44827)" />
    <radialGradient
       cx="159.05324"
       cy="224.4422"
       r="63.95433"
       fx="159.05324"
       fy="224.4422"
       id="radialGradient234947"
       xlink:href="#linearGradient4347-5"
       gradientUnits="userSpaceOnUse"
       gradientTransform="matrix(-2.1772067,0.55708569,-0.22741615,-1.4914115,1151.39,763.17188)" />
    <linearGradient
       x1="196.80621"
       y1="274.3533"
       x2="-17.239187"
       y2="266.54926"
       id="linearGradient234956"
       xlink:href="#linearGradient4636-3"
       gradientUnits="userSpaceOnUse"
       gradientTransform="matrix(-1.5160877,0.68435255,-0.55695793,-1.52331,1152.0537,797.45132)" />
    <linearGradient
       x1="467.41483"
       y1="44.564671"
       x2="526.95978"
       y2="166.79312"
       id="linearGradient234993"
       xlink:href="#linearGradient4843-7"
       gradientUnits="userSpaceOnUse"
       gradientTransform="matrix(-1.4680823,0,0.10823656,-1.5581087,945.45732,880.32428)" />
    <linearGradient
       x1="107.80291"
       y1="291.55527"
       x2="162.06848"
       y2="287.57217"
       id="linearGradient234995"
       xlink:href="#linearGradient4696-3"
       gradientUnits="userSpaceOnUse" />
    <linearGradient
       x1="96.547829"
       y1="499.06042"
       x2="136.58521"
       y2="173.1219"
       id="linearGradient234997"
       xlink:href="#linearGradient5302-1"
       gradientUnits="userSpaceOnUse" />
    <radialGradient
       cx="192.18344"
       cy="251.36209"
       r="122.75722"
       fx="192.18344"
       fy="251.36209"
       id="radialGradient234999"
       xlink:href="#linearGradient4688-9"
       gradientUnits="userSpaceOnUse"
       gradientTransform="matrix(-1.0019783,-1.5743135,1.5859367,-1.27549,-35.582068,906.9858)" />
    <linearGradient
       x1="196.80621"
       y1="274.3533"
       x2="-17.239187"
       y2="266.54926"
       id="linearGradient235001"
       xlink:href="#linearGradient4636-3"
       gradientUnits="userSpaceOnUse" />
    <linearGradient
       x1="358.53571"
       y1="282.37494"
       x2="321.98135"
       y2="225.23206"
       id="linearGradient235005"
       xlink:href="#linearGradient4766-7"
       gradientUnits="userSpaceOnUse"
       gradientTransform="translate(46.467017,-40.406102)" />
    <linearGradient
       x1="553.94489"
       y1="318.405"
       x2="571.83008"
       y2="306.03064"
       id="linearGradient235071"
       xlink:href="#linearGradient5148-1"
       gradientUnits="userSpaceOnUse"
       gradientTransform="matrix(-2.0183401,0,0.14880512,2.1862016,3209.6727,-1278.0157)" />
    <linearGradient
       x1="560.38214"
       y1="324.29474"
       x2="624.77936"
       y2="289.19193"
       id="linearGradient235073"
       xlink:href="#linearGradient4581-5"
       gradientUnits="userSpaceOnUse"
       gradientTransform="matrix(-2.0183401,0,0.14880512,2.1862016,3209.6727,-1278.0157)" />
    <linearGradient
       x1="562.32855"
       y1="127.54076"
       x2="578.74286"
       y2="127.54076"
       id="linearGradient235075"
       xlink:href="#linearGradient5066-5"
       gradientUnits="userSpaceOnUse"
       gradientTransform="matrix(-2.0183401,0,-0.54188869,1.9560751,3352.2348,-1105.0005)" />
    <linearGradient
       x1="562.32855"
       y1="127.54076"
       x2="578.74286"
       y2="127.54076"
       id="linearGradient235077"
       xlink:href="#linearGradient5074-7"
       gradientUnits="userSpaceOnUse"
       gradientTransform="matrix(-2.0183401,0,-0.54188869,1.9560751,3217.5264,-796.58992)" />
    <linearGradient
       x1="509.28571"
       y1="165.93361"
       x2="571.78571"
       y2="165.04076"
       id="linearGradient235079"
       xlink:href="#linearGradient5038-9"
       gradientUnits="userSpaceOnUse" />
    <linearGradient
       x1="562.32855"
       y1="127.54076"
       x2="578.74286"
       y2="127.54076"
       id="linearGradient235081"
       xlink:href="#linearGradient5052-2"
       gradientUnits="userSpaceOnUse"
       gradientTransform="matrix(-2.0183401,0,-0.54188869,1.9560751,3296.6291,-1239.7761)" />
  </defs>
  <metadata
     id="metadata7">
    <rdf:RDF>
      <cc:Work
         rdf:about="">
        <dc:format>image/svg+xml</dc:format>
        <dc:type
           rdf:resource="http://purl.org/dc/dcmitype/StillImage" />
        <dc:title></dc:title>
      </cc:Work>
    </rdf:RDF>
  </metadata>
  <g
     id="layer2"
     style="opacity:0.84545456;display:inline">
    <path
       d="m 368.44621,770.91496 -172.56977,80.1803 -1.00407,3.08614 c -1.78627,2.31307 -5.13887,2.80576 -8.93815,2.6938 C 90.524659,855.66396 55.995839,751.14648 83.892199,674.61233 c 1.026902,-3.93432 4.190094,-5.12068 6.921808,-5.29943 l 3.615107,0.1508 L 212.83888,596.24 c 17.10675,-20.06119 38.1843,-23.88896 57.36449,-35.47378 l 13.81477,-8.54294 c -47.3575,131.37323 2.70816,186.60301 84.38945,219.24815"
       id="path4495"
       style="fill:url(#linearGradient234993);fill-opacity:1;stroke:none" />
    <path
       d="m 292.74805,685.09097 c -19.85246,-56.29584 -17.87616,-115.44364 11.87266,-129.75561 29.74867,-14.31188 71.80761,18.80677 93.94107,73.97262 22.13348,55.16579 15.96012,111.48864 -13.78864,125.80061 -29.74875,14.31204 -69.89156,-14.85183 -92.02509,-70.01762 z"
       id="path4490"
       style="opacity:0.38697318;fill:#0d67b2;fill-opacity:1;fill-rule:evenodd;stroke:none" />
    <path
       d="m 264.40103,701.81493 c -23.65049,-67.06126 -7.41327,-156.78151 32.5537,-165.65868 37.74437,-8.38359 85.54423,22.40302 111.91201,88.11827 26.36779,65.71513 19.80573,134.98278 -16.42571,149.85749 -35.84027,14.71401 -99.12433,-2.51611 -128.04,-72.31708 z"
       id="path5212"
       style="fill:#0c3257;fill-opacity:1;stroke:#0c0909;stroke-width:1.2486316;stroke-miterlimit:4;stroke-opacity:1;stroke-dasharray:none" />
    <path
       d="m 513.85952,76.270278 c 17.89026,41.033072 11.73177,95.930602 -12.98851,101.362352 -23.34555,5.12968 -54.77829,-13.70789 -74.31576,-53.91735 -19.53748,-40.209472 -18.53756,-82.592552 3.56429,-91.694021 21.86314,-9.003172 62.41679,1.539546 83.73998,44.249019 z"
       transform="matrix(-1.5399201,0,0.11353288,-1.5819421,1049.4691,821.03054)"
       id="path4493"
       style="fill:#040463;fill-opacity:1;fill-rule:evenodd;stroke:#0c0909;stroke-width:0.80000001;stroke-miterlimit:4;stroke-opacity:1;stroke-dasharray:none;filter:url(#filter4835-4)" />
    <path
       d="m 514.54325,75.857478 c 18.15939,41.649352 11.90826,97.371392 -13.1839,102.884712 -23.69675,5.20673 -55.60235,-13.91376 -75.43373,-54.72713 -19.83139,-40.813382 -18.81643,-83.83301 3.61791,-93.071174 22.19203,-9.13839 63.35575,1.562669 84.99972,44.913592 z"
       transform="matrix(-1.5399201,0,0.11353288,-1.5819421,1049.4691,821.0304)"
       id="path5218"
       style="fill:#080c7b;fill-opacity:1;stroke:#ffffff;stroke-width:0.79999995;stroke-miterlimit:4;stroke-opacity:1;stroke-dasharray:none;filter:url(#filter5240-2)" />
    <path
       d="m 397.8125,72.1875 c -4.8815,0.186162 -9.25187,1.195215 -12.84375,2.9375 -9.3882,4.553861 -14.8801,16.136833 -15.5,32.09375 -0.6199,15.95692 3.73326,35.87901 13.3125,55.59375 19.14539,39.40253 49.67838,56.95935 70.96875,52.28125 5.17081,-1.13617 9.53742,-4.84452 13.03125,-10.90625 3.49383,-6.06173 5.96298,-14.37406 7.125,-23.84375 2.31912,-18.8993 -0.53182,-42.4195 -9.1875,-62.34375 -0.0209,-0.043 -0.0416,-0.0821 -0.0625,-0.125 C 449.2724,86.342834 418.95944,71.381035 397.8125,72.1875 z"
       transform="matrix(-1.5399201,0,0.11353288,-1.5819421,973.32622,884.95057)"
       id="path4841"
       style="fill:#11528a;fill-opacity:1;fill-rule:evenodd;stroke:#fff9f9;stroke-width:2.9000001;stroke-miterlimit:4;stroke-opacity:1;filter:url(#filter5518-5)" />
    <path
       d="m 445.79221,37.712553 c -3.86764,0.204632 -8.8519,1.221606 -11.48144,2.912595 -5.989,3.851373 -11.24648,11.898684 -11.8125,26.46875 -0.56602,14.57007 3.491,33.574792 12.65625,52.437502 18.28881,37.63964 47.10834,51.55766 63.90879,47.86612 2.9659,-0.65169 5.61831,-1.9021 8.49746,-6.89737 2.87915,-4.99527 4.47175,-12.54811 5.55489,-21.375 3.362,-20.47817 -1.39389,-42.021022 -9.50884,-57.834872 -16.27552,-31.845544 -40.1022,-43.05039 -57.81461,-43.577725 z"
       transform="matrix(-1.5399201,0,0.11353288,-1.5819421,1049.4691,821.0304)"
       id="path4828"
       style="fill:none;stroke:#0c0909;stroke-width:2.9000001;stroke-miterlimit:4;stroke-opacity:1;filter:url(#filter4831-2)" />
    <path
       d="m 814.92539,724.1495 c -141.0569,-35.43801 -279.36864,-55.10864 -427.33906,27.04593 -7.20228,5.25261 -13.53134,6.36763 -21.82957,5.99468 -62.18455,-3.84417 -111.46416,-90.75374 -79.32833,-180.33095 2.29195,-9.56225 5.85453,-12.48012 14.05361,-16.40738 196.09765,-94.22021 257.3589,-217.1006 324.63686,-333.48412 2.09927,144.10787 16.48654,327.88129 189.92818,495.48696"
       id="path4475"
       style="fill:#ececec;fill-opacity:1;stroke:#ffffff;stroke-width:4.68236876;stroke-linecap:butt;stroke-linejoin:miter;stroke-miterlimit:4;stroke-opacity:1;stroke-dasharray:none" />
    <path
       d="m 305.03845,373.39738 c 29.5244,-69.65554 96.91525,-170.91088 199.99999,-210.71429 0.70905,-13.57143 6.7595,-27.14286 0.71428,-40.71428 -76.15146,21.43321 -189.92354,87.11129 -221.42856,125.71428 8.13934,18.14374 24.4757,101.38107 20.71429,125.71429 z"
       transform="matrix(-1.5399201,0,0.11353288,-1.5819421,1049.4691,821.03054)"
       id="path4764"
       style="fill:url(#linearGradient235005);fill-opacity:1;stroke:none;filter:url(#filter4738-4)" />
    <path
       d="m 193.60988,85.527508 c 101.36139,30.513342 189.02587,10.3481 271.42857,-29.285714 l 14.28571,20.714284 c -74.0086,30.709652 -150.63784,63.603002 -245,62.857152 -12.48535,-19.28572 -28.377,-40.714292 -45.71428,-58.571432"
       transform="matrix(-1.5399201,0,0.11353288,-1.5819421,1049.4691,821.03054)"
       id="path4707"
       style="fill:#ffffff;stroke:none;filter:url(#filter4746-1)" />
    <path
       d="m 302.89559,307.68309 c 46.36139,-59.08477 106.16872,-130.3481 195.71428,-157.14286 l -7.14286,-15.71428 c -76.15146,21.43321 -170.63783,77.11129 -202.14285,115.71428 8.13934,18.14374 13.04713,37.09536 13.57143,57.14286 z"
       transform="matrix(-1.5399201,0,0.11353288,-1.5819421,1049.4691,821.03054)"
       id="path4712"
       style="fill:#b3b3b3;stroke:none;filter:url(#filter4738-4)" />
    <path
       d="M 739.23428,667.65152 C 586.6102,619.38119 476.33644,658.06121 344.94319,720.7596 l -16.30156,-18.07937 c 117.45387,-48.58086 225.26204,-90.44665 370.48751,-89.2667 17.03691,30.50882 11.27803,22.59912 35.94872,50.84811"
       id="path4750"
       style="fill:#ffffff;stroke:none" />
    <path
       d="M 690.42534,556.90395 672.12047,519.3508 C 552.73145,570.41727 433.06987,627.12768 294.40129,667.16611 l 2.42294,9.5881 c 151.9354,-50.54106 306.53915,-102.4451 393.60111,-119.85026"
       id="path4774"
       style="fill:#ffffff;stroke:none" />
    <path
       d="m 438.60988,40.527508 c -74.10371,48.63517 -165.79026,55.86167 -278.92858,23.57144 12.05643,10.04321 16.99813,15.96521 26.42857,26.42856 113.39196,30.089732 201.25008,8.95581 283.21429,-40 -8.51516,-6.779207 -19.01412,-10.662232 -30.71428,-10"
       transform="matrix(-1.4680823,0,0.10823656,-1.5581087,1023.9261,811.83391)"
       id="path4779"
       style="fill:#999999;stroke:none;filter:url(#filter4800-0)" />
    <path
       d="M 664.74217,499.82817 C 593.33527,304.52618 614.96219,110.31065 713.04731,66.035661 811.13252,21.760742 948.53294,144.19217 1019.9399,339.49414 c 71.407,195.30199 49.7802,389.51755 -48.30509,433.79253 -98.08499,44.27508 -235.48553,-78.15644 -306.89264,-273.4585 z"
       id="path4600"
       style="fill:url(#linearGradient234956);fill-opacity:1;fill-rule:evenodd;stroke:none" />
    <path
       d="m 97.15625,62.46875 c -30.761085,0 -59.258569,24.903228 -80.1875,66.375 -20.9289314,41.47177 -34,99.11219 -34,162.8125 0,63.70031 13.0711647,121.34863 34,162.8125 20.928835,41.46387 49.425938,66.34375 80.1875,66.34375 30.76156,0 59.26639,-24.8799 80.1875,-66.34375 20.92111,-41.46385 33.96875,-99.11194 33.96875,-162.8125 0,-63.70056 -13.04754,-121.34075 -33.96875,-162.8125 -20.92121,-41.47175 -49.42641,-66.375 -80.1875,-66.375 z"
       transform="matrix(-1.5160877,0.68435255,-0.55695793,-1.52331,1152.0537,797.45132)"
       id="path4648"
       style="fill:url(#linearGradient235001);fill-opacity:1;fill-rule:evenodd;stroke:#ffffff;stroke-width:2.45840406;stroke-linecap:butt;stroke-linejoin:miter;stroke-miterlimit:4;stroke-opacity:1;filter:url(#filter4652-0)" />
    <path
       d="m 214.28572,291.64789 c 0,128.20896 -52.44664,232.14285 -117.14286,232.14285 C 32.446645,523.79074 -20,419.85685 -20,291.64789 -20,163.43893 32.446645,59.505035 97.14286,59.505035 c 64.69622,0 117.14286,103.933895 117.14286,232.142855 z"
       transform="matrix(-1.3299182,0.60039478,-0.48855155,-1.3364271,1114.0183,751.10329)"
       id="path4634"
       style="fill:url(#radialGradient234999);fill-opacity:1;fill-rule:evenodd;stroke:#000000;stroke-width:2.80236936;stroke-linecap:butt;stroke-linejoin:miter;stroke-miterlimit:4;stroke-opacity:1;filter:url(#filter4684-8)" />
    <path
       d="m 762.36206,457.13262 c -17.87231,-32.16385 -18.92401,-67.66861 -2.34897,-79.30208 16.5749,-11.63347 44.49991,5.00971 62.37222,37.17354 17.87223,32.16387 18.92394,67.66861 2.34897,79.30208 -16.5749,11.63348 -44.49999,-5.00968 -62.37222,-37.17354 z"
       id="path4345"
       style="opacity:0.19923371;fill:#000080;fill-rule:evenodd;stroke:none" />
    <path
       d="m 211.42857,260.21933 c 0,58.77888 -31.65987,106.42857 -70.71429,106.42857 -39.05442,0 -70.714288,-47.64969 -70.714288,-106.42857 0,-58.77888 31.659868,-106.42857 70.714288,-106.42857 39.05442,0 70.71429,47.64969 70.71429,106.42857 z"
       transform="matrix(-1.3525867,0.6302477,-0.48313019,-1.4240596,1088.75,732.69)"
       id="path5416"
       style="fill:#000000;fill-rule:evenodd;stroke:#000000;stroke-width:1px;stroke-linecap:butt;stroke-linejoin:miter;stroke-opacity:1;filter:url(#filter5506-9)" />
    <path
       d="m 154.64286,285.39789 c 0,24.95143 -10.79313,45.17857 -24.10714,45.17857 -13.31401,0 -24.10714,-20.22714 -24.10714,-45.17857 0,-24.95144 10.79313,-45.17857 24.10714,-45.17857 13.31401,0 24.10714,20.22713 24.10714,45.17857 z"
       transform="matrix(-1.2449274,0.87377693,-0.71628285,-1.2890585,1159.3068,689.90384)"
       id="path4355"
       style="fill:#000080;fill-rule:evenodd;stroke:none;filter:url(#filter4437-5)" />
    <path
       d="m 214.28572,291.64789 c 0,128.20896 -52.44664,232.14285 -117.14286,232.14285 C 32.446645,523.79074 -20,419.85685 -20,291.64789 -20,163.43893 32.446645,59.505035 97.14286,59.505035 c 64.69622,0 117.14286,103.933895 117.14286,232.142855 z"
       transform="matrix(-1.2077578,0.57364218,-0.43852377,-1.2768781,1077.8245,744.12124)"
       id="path5298"
       style="opacity:0.35632187;fill:url(#linearGradient234997);fill-opacity:1;fill-rule:evenodd;stroke:none;filter:url(#filter5412-3)" />
    <path
       d="m 747.17201,578.31628 c 175.38016,-72.21192 85.62795,-288.6097 -73.95911,-194.66203 -10.11642,9.2408 -8.48987,9.08778 -10.86043,22.05245 9.41304,48.05453 22.65963,95.60957 45.53153,140.77016 0.54604,1.07812 9.96986,19.13765 20.23023,27.14549 8.75631,6.83387 18.09989,5.08833 19.05778,4.69393 z"
       id="path4327"
       style="fill:url(#radialGradient234947);fill-opacity:1;stroke:none" />
    <path
       d="m 158.02955,285.39789 c 0,24.95143 -12.30941,45.17857 -27.49383,45.17857 -15.18442,0 -27.49383,-20.22714 -27.49383,-45.17857 0,-24.95144 12.30941,-45.17857 27.49383,-45.17857 15.18442,0 27.49383,20.22713 27.49383,45.17857 z"
       transform="matrix(-1.2449274,0.87377693,-0.71628285,-1.2890585,1159.3068,689.90384)"
       id="path4332"
       style="fill:url(#linearGradient234995);fill-opacity:1;fill-rule:evenodd;stroke:none;filter:url(#filter4449-1)" />
    <path
       d="m 778.64114,445.70677 c -8.17791,-14.71729 -8.65913,-30.96329 -1.07484,-36.28647 7.5843,-5.32315 20.36196,2.2923 28.5398,17.00962 8.17781,14.71731 8.6592,30.96329 1.0749,36.28645 -7.5843,5.32317 -20.36203,-2.29227 -28.53986,-17.0096 z"
       id="path4334"
       style="fill:url(#radialGradient234943);fill-opacity:1;fill-rule:evenodd;stroke:none" />
    <path
       d="M 396.42857,66.301274 C 322.32486,124.84867 232.42403,134.43523 119.28571,102.145 c 12.05643,10.04321 12.35527,17.85325 21.78571,28.3166 113.39196,30.08973 195.5358,-5.20452 277.50001,-54.160326 -8.51516,-6.779207 -10.4427,-11.606254 -22.14286,-10.944022"
       transform="matrix(-1.5399201,0,0.08590367,-1.1969627,977.13369,831.89851)"
       id="path4804"
       style="fill:#808080;stroke:none;filter:url(#filter4822-5)" />
    <path
       d="m 557.71702,-21.972493 c 53.8961,8.021662 87.81487,36.791808 80.89285,114.642861"
       transform="matrix(-1.4680823,0,0.10823656,-1.5581087,991.59681,835.38483)"
       id="path5204"
       style="fill:none;stroke:#000000;stroke-width:1px;stroke-linecap:butt;stroke-linejoin:miter;stroke-opacity:1;filter:url(#filter5206-8)" />
    <path
       d="m 557.71702,-22.151065 c 1.81416,-2.240032 2.99272,-3.136223 6.08135,-3.271357 48.95443,-2.141866 97.14903,47.1184 79.31026,117.94027 -0.46999,1.86591 -3.64536,2.62519 -3.78447,2.65252"
       transform="matrix(-1.4680823,0,0.10823656,-1.5581087,1012.1702,820.98607)"
       id="path5210"
       style="fill:none;stroke:#000000;stroke-width:1px;stroke-linecap:butt;stroke-linejoin:miter;stroke-opacity:1;filter:url(#filter5206-8)" />
    <path
       d="m 165.03845,194.81322 c 40.10293,10.65376 60.6592,50.83188 60,82.85715 23.39394,-53.82356 -37.69931,-112.70643 -62.85714,-85.71429"
       transform="matrix(-1.4323941,0,0.10560538,-1.5572919,1020.0388,817.59211)"
       id="path5273"
       style="fill:#ffffff;fill-opacity:1;stroke:none;filter:url(#filter5394-7)" />
    <g
       transform="matrix(0.50897205,-0.59917078,0.56749565,0.4535838,-358.20214,2513.0499)"
       id="g235044">
      <path
         d="m 2282.2429,-818.43385 c -80.2059,130.26338 -160.4118,260.52675 -240.6177,390.79013 -4.0952,21.50506 -23.2805,9.01308 -32.7184,-0.37191 -28.1236,-21.30727 -55.1577,-44.31724 -83.979,-64.53434 -10.8475,-15.30568 13.4444,-36.41122 17.2347,-53.68594 57.0458,-118.54759 114.6097,-237.04477 162.5693,-359.64603 52.3753,25.78031 112.3756,34.66224 161.4285,67.24372 7.0017,5.31717 13.6378,11.81391 16.8034,20.20437"
         id="path4589"
         style="fill:url(#linearGradient235071);fill-opacity:1;stroke:#b6b6b6;stroke-width:2.10059476px;stroke-linecap:butt;stroke-linejoin:miter;stroke-opacity:1" />
      <path
         d="m 2138.6605,-935.60186 c 18.738,1.49917 42.0289,9.71405 47.0738,29.70595 -28.9959,51.15504 -51.5033,106.68947 -64.7896,163.65876 -16.4945,3.53883 -33.7777,-10.23756 -45.7175,-20.94176 -4.7097,-8.69236 -20.8392,-14.51358 -20.9436,-24.82133 28.1311,-46.86281 56.1341,-93.80724 84.2159,-140.70143 -4.4466,-1.08222 -4.2712,-6.31318 0.161,-6.90019 z"
         id="path5138"
         style="fill:#000080;fill-opacity:1;stroke:#000000;stroke-width:2.10059476;stroke-opacity:1" />
      <path
         d="m 2240.5774,-848.10374 c -73.7261,126.61971 -147.4522,253.23942 -221.1783,379.85913 -4.0887,21.49591 -23.0309,8.66044 -33.5671,0.82697 -19.9476,-12.90983 -40.2763,-25.53501 -59.9988,-38.57316 3.1651,-19.3909 16.6983,-37.22971 24.0693,-55.95456 54.5698,-113.26877 109.1097,-226.73014 154.8293,-343.93658 45.2819,19.2594 90.5637,38.5188 135.8456,57.7782 z"
         id="path4574"
         style="fill:url(#linearGradient235073);fill-opacity:1;stroke:#ffffff;stroke-width:2.10059476px;stroke-linecap:butt;stroke-linejoin:miter;stroke-opacity:1" />
      <path
         d="m 2116.0888,-855.52121 c -7.9156,35.04904 41.4359,13.99588 31.433,-11.1319 -6.3885,-19.64439 -29.673,-2.06816 -31.433,11.1319 z"
         id="path4572"
         style="fill:url(#linearGradient235075);fill-rule:evenodd;stroke:#000000;stroke-width:2.10059476px;stroke-linecap:butt;stroke-linejoin:miter;stroke-opacity:1" />
      <path
         d="m 613.25273,208.6851 c 13.59276,26.90772 27.18553,53.81543 40.77829,80.72315 8.53737,6.65171 19.42546,18.32894 29.73163,18.0102 3.71541,-3.12862 11.82176,-4.01025 11.80291,-9.16669 -29.70842,-50.3295 -60.27669,-100.25897 -86.2585,-152.66335 3.93427,14.36557 7.86854,28.73113 11.80281,43.0967"
         transform="matrix(-2.0183401,0,0.14880512,2.1862016,3309.4716,-1189.6798)"
         id="path5220"
         style="fill:#e0ffff;fill-opacity:1;stroke:none;filter:url(#filter5232-2)" />
      <path
         d="m 1981.3804,-547.11061 c -7.9156,35.04903 41.4359,13.99586 31.433,-11.13191 -6.5212,-19.82676 -29.4999,-1.97851 -31.433,11.13191 z"
         id="path4579"
         style="fill:url(#linearGradient235077);fill-rule:evenodd;stroke:#000000;stroke-width:2.10059476px;stroke-linecap:butt;stroke-linejoin:miter;stroke-opacity:1" />
      <path
         d="m 2244.8486,-852.74924 c 25.5059,0.46398 48.0773,32.89967 27.2855,53.05786 -23.7773,45.40634 -42.6458,93.56729 -53.804,143.66106 -24.5674,-2.77752 -53.2706,-25.50922 -59.1852,-45.9398 27.6506,-50.39908 55.3012,-100.79817 82.9518,-151.19725"
         id="path4591"
         style="fill:#000080;fill-opacity:1;stroke:none" />
      <path
         d="m 2238.3139,-843.91565 c 27.4743,-0.91128 57.9639,24.21797 31.3678,48.96485 -22.6336,44.00009 -40.5753,90.57027 -51.3516,138.92048 -24.467,-2.71992 -53.4669,-25.62177 -59.045,-45.8594 27.8669,-46.56119 55.7338,-93.12238 83.6007,-139.68357"
         id="path5136"
         style="fill:#000080;fill-opacity:1;stroke:none" />
      <path
         d="m 540.39559,159.81322 c -13.43515,-1.51695 -16.75243,13.19476 -6.64968,20.44251 11.89785,16.69928 22.91411,34.39045 28.79254,54.20035 8.21661,0.65803 22.13267,-10.51228 16.22609,-17.87835 -13.02774,-19.04055 -26.05549,-38.0811 -39.08323,-57.12165"
         transform="matrix(-2.0183401,0,0.14880512,2.1862016,3309.4716,-1189.6798)"
         id="path4596"
         style="fill:#0000ff;fill-opacity:1;stroke:none;filter:url(#filter5106-7)" />
      <path
         d="m 2241.2044,-848.19846 c 8.3865,-38.47964 7.3975,-86.58778 -27.0179,-112.56027 -40.1119,-32.09762 -91.2591,-44.90237 -135.1831,-70.40627 -17.2581,-3.9311 -22.4349,16.4275 -31.4498,26.7722 -10.3065,16.32324 -27.8104,32.8268 -19.8323,53.99691 20.6687,30.61268 46.9829,60.21251 55.8688,97.30027 17.1302,-24.41513 48.7336,-40.51325 78.2612,-29.45584 27.8401,8.44036 51.749,26.01369 78.9561,36.00933"
         id="path4547"
         style="fill:#b3b3b3;fill-opacity:1;stroke:none" />
      <path
         d="m 570.75,118 c -19.23737,10.38957 -40.59595,16.89614 -58.86317,29.14269 -6.65427,4.90196 -14.6524,11.48157 -12.85558,20.63171 0,7.12729 0,14.25457 0,21.38185 18.17633,-8.63359 38.57268,-21.43674 59.20717,-12.81982 6.80063,1.40015 14.11572,13.13964 15.79712,0.77957 3.14771,-13.33448 22.38099,-24.03787 15.12071,-38.20975 -5.41673,-6.60582 -10.81075,-13.23063 -16.21875,-19.84375 L 571.125,118 l -0.375,0 z"
         transform="matrix(-2.0183401,0,0.14880512,2.1862016,3209.6727,-1278.0157)"
         id="path4956"
         style="fill:#808080;fill-opacity:1;stroke:#000000;stroke-opacity:1;filter:url(#filter4970-7)" />
      <path
         d="m 544.47222,154.33657 c -3.77868,-16.14044 -1.07637,-36.33671 14.56506,-45.3131 21.50466,-11.997681 47.59346,-8.97641 70.80436,-4.46486 15.67497,1.19643 -5.3766,14.52943 -7.19322,22.56484 -5.35168,5.531 -5.8781,19.83098 -7.64362,21.97698 -9.87468,-10.99883 -26.43076,-13.35264 -39.55476,-7.00054 -10.36269,3.97515 -20.03353,9.88225 -30.97782,12.23668 z"
         transform="matrix(-2.0183401,0,0.14880512,2.1862016,3309.4716,-1189.6798)"
         id="path4949"
         style="fill:#4d4d4d;stroke:#000000;stroke-width:1px;stroke-linecap:butt;stroke-linejoin:miter;stroke-opacity:1;filter:url(#filter5026-6)" />
      <path
         d="m 534.8125,150.59375 c -11.93959,-0.37892 -28.40244,0.85323 -32.27127,14.71662 -1.67482,8.2409 -5.2698,30.10861 8.3926,19.59353 15.39971,-7.34025 33.9371,-15.8427 50.452,-6.51462 7.80111,6.25298 6.75731,-12.17764 12.9831,-16.27193 3.55826,-5.51015 10.99229,-12.21849 -0.55735,-9.42845 -13.03479,0.0845 -25.97743,-1.82468 -38.99908,-2.09515 z"
         transform="matrix(-2.0183401,0,0.14880512,2.1862016,3209.6727,-1278.0157)"
         id="path4976"
         style="fill:url(#linearGradient235079);fill-opacity:1;stroke:#000000;stroke-width:1px;stroke-linecap:butt;stroke-linejoin:miter;stroke-opacity:1;filter:url(#filter5018-5)" />
      <path
         d="m 2143.5984,-848.49415 c -8.1191,-4.55459 -16.2381,-9.10917 -24.3572,-13.66376"
         id="path5046"
         style="fill:none;stroke:#000000;stroke-width:2.10059476px;stroke-linecap:butt;stroke-linejoin:miter;stroke-opacity:1" />
      <path
         d="m 2007.9417,-538.13159 c -7.4868,-5.85589 -14.9736,-11.71179 -22.4604,-17.56768"
         id="path5048"
         style="fill:none;stroke:#000000;stroke-width:2.10059476px;stroke-linecap:butt;stroke-linejoin:miter;stroke-opacity:1" />
      <path
         d="m 2060.4831,-990.29681 c -7.9156,35.04904 41.4359,13.99588 31.433,-11.13189 -6.3885,-19.6445 -29.673,-2.0682 -31.433,11.13189 z"
         id="path4570"
         style="fill:url(#linearGradient235081);fill-rule:evenodd;stroke:#000000;stroke-width:2.10059476px;stroke-linecap:butt;stroke-linejoin:miter;stroke-opacity:1" />
      <path
         d="m 2088.9063,-984.77278 c -8.0911,-4.04873 -16.1822,-8.09746 -24.2733,-12.14619"
         id="path5050"
         style="fill:none;stroke:#000000;stroke-width:2.10059476px;stroke-linecap:butt;stroke-linejoin:miter;stroke-opacity:1" />
      <path
         d="m 536.82416,163.38465 c -3.27015,8.34788 11.51559,18.72004 15.11056,28.24337 8.18432,10.18999 9.24714,25.86091 17.75748,34.40071 7.80636,-1.08549 10.22803,-7.83672 3.96121,-12.67202 -12.03832,-16.7764 -24.07664,-33.5528 -36.11496,-50.3292"
         transform="matrix(-2.0183401,0,0.14880512,2.1862016,3309.4716,-1189.6798)"
         id="path4598"
         style="fill:#00ffff;fill-opacity:1;stroke:none;filter:url(#filter5130-6)" />
      <path
         d="m 2243.1544,-852.82104 c -30.2657,52.08136 -60.5313,104.16271 -90.797,156.24407"
         id="path5244"
         style="fill:none;stroke:#000000;stroke-width:2.10059476px;stroke-linecap:butt;stroke-linejoin:miter;stroke-opacity:1" />
      <path
         d="m 2140.5412,-877.66551 c -21.1338,-4.03915 -33.5162,22.90351 -25.3282,39.75113"
         id="path5246"
         style="fill:none;stroke:#fff9f9;stroke-width:2.10059476px;stroke-linecap:butt;stroke-linejoin:miter;stroke-opacity:1" />
      <path
         d="m 2005.1051,-568.48991 c -21.1338,-4.03914 -33.5162,22.90351 -25.3282,39.75114"
         id="path5248"
         style="fill:none;stroke:#fff9f9;stroke-width:2.10059476px;stroke-linecap:butt;stroke-linejoin:miter;stroke-opacity:1" />
      <path
         d="m 2086.0831,-1011.2735 c -21.1338,-4.0392 -33.5162,22.90348 -25.3282,39.75109"
         id="path5250"
         style="fill:none;stroke:#fff9f9;stroke-width:2.10059476px;stroke-linecap:butt;stroke-linejoin:miter;stroke-opacity:1" />
      <path
         d="m 612.13943,84.386448 c -2.77649,6.173003 3.98423,14.765976 10.50417,13.8896"
         transform="matrix(-2.0183401,0,0.14880512,2.1862016,3317.5528,-1189.6798)"
         id="path5563"
         style="fill:none;stroke:#fff9f9;stroke-width:1px;stroke-linecap:butt;stroke-linejoin:miter;stroke-opacity:1;filter:url(#filter5593-0)" />
      <path
         d="m 590.71086,145.81502 c -2.77649,6.173 3.98423,14.76598 10.50417,13.8896"
         transform="matrix(-2.0183401,0,0.14880512,2.1862016,3309.4716,-1189.6798)"
         id="path5597"
         style="fill:none;stroke:#fff9f9;stroke-width:1px;stroke-linecap:butt;stroke-linejoin:miter;stroke-opacity:1;filter:url(#filter5593-0)" />
      <path
         d="m 667.13943,287.95788 c -2.77649,6.173 3.98423,14.76598 10.50417,13.8896"
         transform="matrix(-2.0183401,0,0.14880512,2.1862016,3309.4716,-1189.6798)"
         id="path5599"
         style="fill:none;stroke:#fff9f9;stroke-width:1px;stroke-linecap:butt;stroke-linejoin:miter;stroke-opacity:1;filter:url(#filter5593-0)" />
    </g>
  </g>
  <g
     transform="translate(2201.53,2081.9236)"
     id="layer1"
     style="opacity:0.67272728;display:inline">
    <path
       d="m -582.85712,3.7907546 a 465.71429,465.71429 0 1 1 -931.42858,0 465.71429,465.71429 0 1 1 931.42858,0 z"
       transform="matrix(0.79922143,0,0,0.78310247,-808.34748,-1512.6501)"
       id="path3187"
       style="fill:#ffffff;fill-opacity:1;stroke:#000000;stroke-width:80;stroke-linecap:round;stroke-linejoin:round;stroke-miterlimit:4;stroke-opacity:1;stroke-dasharray:none" />
    <path
       d="m -582.85712,3.7907546 a 465.71429,465.71429 0 1 1 -931.42858,0 465.71429,465.71429 0 1 1 931.42858,0 z"
       transform="matrix(0.54497107,0,0,0.53397992,-1072.09,-1511.7058)"
       id="path3185"
       style="fill:#ffffff;fill-opacity:1;stroke:#000000;stroke-width:80;stroke-linecap:round;stroke-linejoin:round;stroke-miterlimit:4;stroke-opacity:1;stroke-dasharray:none" />
    <path
       d="m -582.85712,3.7907546 a 465.71429,465.71429 0 1 1 -931.42858,0 465.71429,465.71429 0 1 1 931.42858,0 z"
       transform="matrix(0.33656913,0,0,0.32978109,-1290.6143,-1510.9317)"
       id="path3183"
       style="fill:#ffffff;fill-opacity:1;stroke:#000000;stroke-width:80;stroke-linecap:round;stroke-linejoin:round;stroke-miterlimit:4;stroke-opacity:1;stroke-dasharray:none" />
    <path
       d="m -582.85712,3.7907546 a 465.71429,465.71429 0 1 1 -931.42858,0 465.71429,465.71429 0 1 1 931.42858,0 z"
       transform="matrix(0.18443572,0,0,0.18071596,-1450.1371,-1510.3666)"
       id="path3181"
       style="fill:#ffffff;fill-opacity:1;stroke:#000000;stroke-width:80;stroke-linecap:round;stroke-linejoin:round;stroke-miterlimit:4;stroke-opacity:1;stroke-dasharray:none" />
    <path
       d="m -1617.4466,-1507.3581 c -0.2711,10.4704 -6.4311,19.1721 -15.9344,23.5489 -1.5601,0.6469 15.0248,327.4076 15.6561,337.8798 -24.9939,0.089 -25.5912,0.035 -51.7987,0.1383 0.445,-10.4723 17.4026,-337.3712 15.8424,-338.0181 -9.7565,-4.3398 -15.5091,-13.2521 -15.9344,-23.5489 0,-14.1082 11.6859,-25.5584 26.0845,-25.5584 14.3987,0 26.0845,11.4502 26.0845,25.5584 z"
       id="path2385"
       style="fill:#000000;fill-opacity:1;stroke:none" />
  </g>
</svg>
